/* XPM */
static char *way_ezgif_com_overlay_2_1723097121[] = {
/* columns rows colors chars-per-pixel */
"50 50 216 2 ",
"   c #53080D",
".  c #4A0818",
"X  c #4B0B1B",
"o  c #5D0315",
"O  c #590816",
"+  c #55051A",
"@  c #5C051B",
"#  c #550A1A",
"$  c #5B0A1D",
"%  c #55151C",
"&  c #690209",
"*  c #75020B",
"=  c #7A0408",
"-  c #660716",
";  c #6C0314",
":  c #63061B",
">  c #6C0419",
",  c #63091E",
"<  c #6A0A1D",
"1  c #720315",
"2  c #7C0412",
"3  c #73031A",
"4  c #7B0A19",
"5  c #6B1019",
"6  c #78151C",
"7  c #430922",
"8  c #5A0422",
"9  c #530C22",
"0  c #5C0A20",
"q  c #4E1928",
"w  c #571328",
"e  c #640822",
"r  c #7C0521",
"t  c #720C22",
"y  c #7B0A24",
"u  c #6B1426",
"i  c #562725",
"p  c #4B302B",
"a  c #69282B",
"s  c #762C2D",
"d  c #6D2F30",
"f  c #7E441E",
"g  c #6D472D",
"h  c #754928",
"j  c #75492C",
"k  c #7B4B2B",
"l  c #694A39",
"z  c #754835",
"x  c #705436",
"c  c #765437",
"v  c #705447",
"b  c #735A47",
"n  c #6F5F50",
"m  c #6C6347",
"M  c #7A6143",
"N  c #796547",
"B  c #75704F",
"V  c #880309",
"C  c #95040C",
"Z  c #9E020C",
"A  c #830414",
"S  c #8A0517",
"D  c #840B15",
"F  c #82041B",
"G  c #8A0B1B",
"H  c #920315",
"J  c #920913",
"K  c #94051C",
"L  c #930B1B",
"P  c #841016",
"I  c #941619",
"U  c #BB0C0A",
"Y  c #A70417",
"T  c #A30E15",
"R  c #AC0D13",
"E  c #A30C19",
"W  c #AF0E19",
"Q  c #B30D14",
"!  c #BC0B13",
"~  c #BB0718",
"^  c #B30B1C",
"/  c #A21216",
"(  c #AC1111",
")  c #A8141B",
"_  c #870B22",
"`  c #8D0B23",
"'  c #861524",
"]  c #961527",
"[  c #A60D22",
"{  c #AB0E23",
"}  c #B60E23",
"|  c #AE1623",
" . c #AC1A29",
".. c #8D2329",
"X. c #8B3138",
"o. c #B92722",
"O. c #AB312E",
"+. c #CE110F",
"@. c #C60913",
"#. c #CA0B15",
"$. c #C7161B",
"%. c #D91818",
"&. c #F70F0D",
"*. c #E6140D",
"=. c #E70F19",
"-. c #EB1413",
";. c #E4191C",
":. c #F31212",
">. c #FB1311",
",. c #F8131C",
"<. c #CE211D",
"1. c #CC1C29",
"2. c #D61A2A",
"3. c #E30E20",
"4. c #E71726",
"5. c #C72E34",
"6. c #844A23",
"7. c #834F2A",
"8. c #85532A",
"9. c #9E4239",
"0. c #865837",
"q. c #965936",
"w. c #82673E",
"e. c #97673F",
"r. c #99623C",
"t. c #A3693C",
"y. c #C44030",
"u. c #965B45",
"i. c #915B4B",
"p. c #B75C48",
"a. c #816648",
"s. c #9C6C44",
"d. c #956D4A",
"f. c #88754C",
"g. c #9B744B",
"h. c #956558",
"j. c #967556",
"k. c #A16E4A",
"l. c #A87146",
"z. c #A5754A",
"x. c #A67A58",
"c. c #8E6863",
"v. c #B67B6B",
"b. c #3C916F",
"n. c #3F9371",
"m. c #7B9155",
"M. c #7B955B",
"N. c #7E9A5C",
"B. c #6ABA41",
"V. c #79B54D",
"C. c #71BB4A",
"Z. c #7EAC59",
"A. c #7BBC53",
"S. c #4E9778",
"D. c #549D7E",
"F. c #7CC054",
"G. c #8A865A",
"H. c #8C8B5B",
"J. c #849B5C",
"K. c #AA8458",
"L. c #B2855C",
"P. c #B7895B",
"I. c #86AA5E",
"U. c #99A45E",
"Y. c #83B658",
"T. c #8AB95B",
"R. c #878B69",
"E. c #839B60",
"W. c #868E73",
"Q. c #AA8463",
"!. c #B38A64",
"~. c #BD9569",
"^. c #BB997A",
"/. c #95A469",
"(. c #97A668",
"). c #96A76C",
"_. c #8DB664",
"`. c #93B668",
"'. c #A0A464",
"]. c #A3AA6E",
"[. c #A4A777",
"{. c #C7996C",
"}. c #C29C74",
"|. c #C99C78",
" X c #CBA274",
".X c #C4A478",
"XX c #C6A47B",
"oX c #C9A37C",
"OX c #D2A47A",
"+X c #DAA778",
"@X c #84C15B",
"#X c #98E25D",
"$X c #9BE362",
"%X c #A3E36D",
"&X c #A8E270",
"*X c #7D9F83",
"=X c #61A081",
"-X c #C39387",
";X c #C3A684",
":X c #CCAB82",
">X c #D4AD86",
",X c #D6B487",
"<X c #E7BB8E",
"1X c #EBBE95",
"2X c #EBC79C",
"3X c #F6C79A",
"4X c #E5C6A2",
"5X c #EDCBA3",
"6X c #E7CEAD",
"7X c #EBCDAB",
"8X c #F2CDA3",
"9X c #F5CBAA",
"0X c #ECD2AD",
"qX c #F7D3A8",
"wX c #EFD3B1",
"eX c #F2D5B4",
/* pixels */
"B.B.B.B.B.B.B.B.B.B.B.B.B.B.B.B.B.B.B.B.B.B.B.B.B.B.B.B.B.B.B.B.B.B.B.B.B.B.b.B.B.B.B.B.B.B.B.B.B.B.",
"B.B.B.B.B.B.B.B.B.B.B.B.B.B.B.B.B.B.B.B.B.B.B.B.B.B.B.B.B.B.B.B.B.B.B.B.B.B.b.B.B.B.B.B.B.B.B.B.B.B.",
"B.B.b.B.B.B.B.B.B.b.b.B.B.B.B.B.B.b.b.B.B.B.B.B.B.B.B.B.B.B.B.B.B.B.B.B.B.B.B.b.b.B.B.B.B.B.B.B.B.B.",
"B.B.B.b.b.B.B.B.B.B.B.b.b.B.B.B.B.B.B.b.B.B.B.B.B.B.B.B.B.B.b.B.B.B.B.B.B.B.$Xb.b.B.B.B.B.B.B.B.B.B.",
"B.B.B.b.b.B.B.B.B.B.B.b.b.B.B.B.B.B.B.b.B.B.B.B.B.B.B.B.B.B.S.T.`._.B.B.B.B.#Xb.b.B.B.B.B.B.B.B.B.B.",
"B.B.#Xb.b.B.B.B.B.#X#Xb.b.B.B.B.B.#X#Xb.B.B.B.B.B.B.B.B.B.U.X...' e R._.B.B.B.#X#XB.B.B.B.B.B.B.B.B.",
"B.B.B.#X#XB.B.B.B.B.B.#X#XB.B.B.B.B.B.#XB.B.B.B.B.B.B.K.p.( ( / _ u q p B.B.B.B.B.B.b.b.B.B.B.B.B.B.",
"B.B.B.#X#XB.B.B.B.B.B.#X#XB.B.B.B.B.V.g.f.B.B.B.B.B.x.O.) U ( I a (.C.C.B.B.B.B.B.B.b.b.B.B.B.B.B.B.",
"B.B.B.B.B.B.B.B.B.B.B.B.B.b.B.A.q.9.o.$.<.y.L.C.B.c. .{ [ K G u.$XB.B.B.B.B.B.B.B.B.B.B.b.B.B.B.B.B.",
"B.B.B.B.B.B.B.B.B.B.B.B.B.C.c.I $.%.-.:.:.*.2.5.'.9.L C ` 4 u J.B.B.B.B.B.B.B.B.B.B.#X#Xb.B.B.B.B.B.",
"B.B.B.B.B.B.B.B.B.B.B.B.C.g.) $.;.:.&.>.>.,.4.#.o.V D 6 4 & z B.B.B.B.B.B.B.B.B.B.B.#X#Xb.B.B.B.B.B.",
"B.B.B.b.b.B.B.B.B.B.B.B.T.I $.=.:.&.&.>.:.=.4.$.Z V = & ' 6 % Z.B.B.B.B.B.B.B.B.B.B.B.B.#XB.B.B.B.B.",
"B.B.B.b.b.B.B.B.B.B.B.B.u.R @.=.,.,.*.*.%.#.~ Z G = & V | S + m B.B.B.B.B.B.B.B.B.B.B.B.#XB.B.B.B.B.",
"B.B.B.B.B.b.B.B.B.B.B.B...| U @.3.4.+.U U R Y H G = V o.5.H 8 q Z.B.b.b.B.B.B.B.B.B.B.B.B.B.B.B.B.B.",
"B.B.B.#X#Xb.B.B.B.B.B.B.j.D ) R Y ^ ) C C C A H C Q #.2.W 2 e 7 M.B.B.B.b.b.B.B.B.B.b.b.B.B.B.B.B.B.",
"B.B.B.#X#Xb.B.B.B.B.B.B.T.5 2 L K S G D G G A L W 2.4.4.E * 8 q M.B.B.B.b.b.B.B.B.B.b.b.B.B.B.B.B.B.",
"b.b.B.B.B.#XB.B.B.B.B.B.Y.. u ; > 3 r y _ r 3 2 H } 1.} L ; - 9 M.B.#X#Xb.b.B.B.B.B.B.B.b.B.B.B.B.B.",
"B.B.b.B.B.B.B.B.B.B.B.B.Y.. @ o o > r 4 3 1 ; * V C Y H F < , X N.B.B.B.#X#XB.B.B.B.#X#Xb.B.B.B.B.B.",
"B.B.b.B.B.B.B.B.B.B.B.B.`.t o , ; 1 2 A V = V C Z Z C D 5 O $ X M.B.B.B.#X#XB.B.B.B.#X#Xb.B.B.B.B.B.",
"#X#Xb.B.B.B.B.B.B.B.B.(.X.y t & P G G J J T R Q Q R I 6 5 @ 0 9 N.B.B.B.B.B.B.B.B.B.B.B.#XB.B.B.B.B.",
"B.B.#XB.B.B.B.B.B.B.I.X.t y > t ] [ E R Q Q U U Q T D 5 O @ e 8 M.B.B.B.B.B.B.B.B.B.B.B.B.B.B.b.B.B.",
"B.B.#XB.B.B.B.B.B.I.d u u + + < 4 S E ^ ! ! @.~ Q I 4 - @ @ 8 w N.B.B.B.B.B.B.B.B.B.B.B.B.B.B.b.B.B.",
"B.B.B.B.B.b.B.B.B.J.9 i l x p X o 1 A E ^ @.~ ^ K A > @ 8 w 8 v B.B.B.B.B.B.B.B.B.B.B.B.B.B.B.B.b.b.",
"B.B.B.B.B.B.b.b.V.i m m.B.B.Z.B $ O 1 L { { [ [ F 3 e + 9 9 9 n F.B.B.B.B.B.B.B.B.b.B.B.B.B.B.#Xb.b.",
"B.B.B.B.B.B.b.b.C.B B.B.B.B.B.B.E.X e 3 _ ` _ ; - : 0 @ # % d c.j.F.B.B.B.B.B.B.B.b.B.B.B.B.B.#Xb.b.",
"B.B.B.B.B.#Xb.b.B.B.B.B.B.B.B.B.B.E.X 0 > : : @ + u + o   s v.h.z `.B.B.B.B.B.B.B.B.b.b.B.B.B.B.#X#X",
"B.B.B.B.B.#Xb.b.B.B.B.B.B.B.B.B.B.B.B.B w w . + 0       X.|.OXx.a.f.@XB.B.B.B.B.B.B.b.b.B.B.B.B.#X#X",
"B.B.B.B.B.B.#X#XB.B.B.B.B.b.B.B.B.B.B.B.A.n v l a a i.v.,XqXOXs.0.h `.B.B.B.B.B.B.#Xb.b.B.B.B.B.B.B.",
"B.B.B.B.B.B.B.B.B.B.B.B.B.B.b.b.B.B.B.B.B.B.b.B.[.-X9X7X8X2X Xz.s.h b F.b.b.B.B.B.B.#X#XB.B.B.B.B.B.",
"B.B.B.B.B.B.B.B.B.B.B.B.B.B.b.b.B.B.B.B.B.B.b.B.[.^.4X5X8X2X{.z.q.f x F.b.b.B.B.B.B.#X#XB.B.B.B.B.B.",
"B.B.B.B.B.B.B.B.B.B.B.B.B.#Xb.b.B.B.B.B.B.B.B.n.W.^.>X5XqXoX.Xz.r.6.x /.B.B.b.B.B.B.B.B.B.B.B.B.B.B.",
"B.B.B.B.B.B.B.B.B.B.B.B.B.B.#X#XB.B.B.B.B.B.#Xn.W.h..X,X;X;X}.g.r.f h N $X#Xb.B.B.B.B.B.B.B.B.B.B.B.",
"B.B.B.B.B.B.B.B.B.B.B.B.B.B.#X#XB.B.B.B.B.B.#Xb.W.d.^.^..XoXx.g.k.q.k w.&X#Xn.B.B.B.B.B.B.B.B.B.B.B.",
"B.B.B.B.B.B.b.b.B.B.B.B.B.B.B.B.B.b.b.B.B.B.B.#X(.s..X X}.oX|.!.s.z.8.h H.B.#XB.B.b.B.B.B.B.B.B.B.B.",
"B.B.B.B.B.B.B.B.b.B.B.B.B.B.B.B.B.B.B.b.B.B.B.B.U.K. X X|.|.{.{.K.s.8.j G.B.B.B.B.B.b.b.B.B.B.B.B.B.",
"B.B.B.B.B.B.B.B.b.B.B.B.B.B.B.B.B.B.B.b.B.B.B.B.].~. X<X<X<XOXOX!.g.s.h H.B.B.B.B.B.b.b.B.B.B.B.B.B.",
"B.B.b.B.B.B.#X#Xb.B.B.B.B.B.B.B.B.#X#Xb.B.B.B.B.].~.,XqX8XqX1XoX}.L.k.0.G.C.B.B.B.#Xb.b.B.B.B.B.B.B.",
"B.B.b.B.B.B.#X#Xb.B.B.B.B.B.B.B.B.#X#Xb.B.B.B.B.].^.2X7X8XqX7X:XOXx.s.k g (.B.B.B.#Xb.b.B.B.B.B.B.B.",
"B.B.B.b.b.B.B.B.#XB.B.B.B.b.B.B.B.B.B.#XB.B.B.B.(.;X6X6X0XwXwX4XXXK.l.6.g (.B.B.B.B.#X#XB.B.B.b.B.B.",
"B.B.#Xb.b.B.B.B.B.B.B.B.B.B.b.b.B.B.B.B.B.B.B.B.].^.6XeX6X0X0X4XoXL.t.8.c (.B.B.B.B.B.B.B.B.B.B.b.b.",
"B.B.#Xb.b.B.B.B.B.B.B.B.B.B.b.b.B.B.B.B.B.B.B.B._.^.7X6XwX7X7X2X{.~.t.6.j (.B.B.B.B.B.B.B.B.B.B.b.b.",
"B.B.B.#X#XB.B.B.B.B.B.B.B.#Xb.b.B.B.B.B.B.B.B.B.I.}.7XwX9XqX8X+X+Xz.t.8.j (.B.B.B.B.B.B.B.B.B.#Xb.b.",
"B.B.B.B.B.B.b.b.B.B.B.B.B.B.#X#XB.B.B.B.b.b.B.B.Y.!.>X5X3X3X3X{.{.P.r.7.x `.B.B.B.b.B.B.B.B.B.B.#X#X",
"B.B.B.B.B.B.b.b.B.B.B.B.B.B.#X#XB.B.B.B.b.b.B.B.V.Q.|.>X3X<X+X{.!.d.k k G.B.B.B.B.b.B.B.B.B.B.B.#X#X",
"B.B.B.B.B.B.B.B.b.B.B.B.B.B.B.B.B.B.B.B.B.B.b.B.B.f.j.x.Q.K.L.x.c c g a._.B.B.B.B.B.b.b.B.B.B.B.B.B.",
"B.B.B.B.B.B.#X#Xb.B.B.B.B.B.b.b.B.B.B.B.#X#Xb.B.B.C.`.B m b b a.m b *X=XB.B.B.B.B.#Xb.b.B.B.B.b.B.B.",
"B.B.B.B.B.B.#X#Xb.B.B.B.B.B.b.b.B.B.B.B.#X#Xb.B.B.B.B.&XD.D.A.A.A.%XS.b.B.B.B.B.B.#Xb.b.B.B.B.b.B.B.",
"B.B.B.B.B.B.B.B.#XB.B.B.B.B.B.B.b.B.B.B.B.B.#XB.B.B.B.B.#X#XB.B.B.B.#X#XB.B.B.B.B.B.#X#XB.B.B.B.b.b.",
"B.B.B.B.B.B.B.B.B.B.B.B.B.B.#X#Xb.B.B.B.B.B.B.B.B.B.B.B.B.B.B.B.B.B.B.B.B.B.B.B.B.B.B.B.B.B.B.#Xb.b.",
"B.B.B.B.B.B.B.B.B.B.B.B.B.B.#X#Xb.B.B.B.B.B.B.B.B.B.B.B.B.B.B.B.B.B.B.B.B.B.B.B.B.B.B.B.B.B.B.#Xb.b."
};
