/* XPM */
static char *ee2afbb1178d472be7fce60a8ed729e1Xw3JJPrGVzL2I55k[] = {
/* columns rows colors chars-per-pixel */
"50 50 8 1 ",
"  c #382F1C",
". c #493F25",
"X c #4B4026",
"o c #5B482E",
"O c #6E5537",
"+ c #705638",
"@ c #795E3E",
"# c #7D6140",
/* pixels */
"..X###@@o##oooooooooooooo##@#####@##ooo...oooooooo",
"..X###@@o##oooooooooooooo##@#####@##ooo...oooooooo",
"##@###oooooooo##...+##ooo##@#####@##ooo...++###ooo",
"###@@#..@oooo###...+###oo##@###@@@##oo#XX+######oo",
"###@@#..@oooo###...+###oo##@###@@@##oo#XX+######oo",
"###@@###@##oo###ooo####oo##@###@@###oo#oo+######oo",
"###@@###@##oo####@@####oo##@###@@###oo#@@#######oo",
"###@@###@##oo####@@####oo##@###@@###oo#@@#######oo",
"###@@###@##oo####@@####oo##@###@@###oo#@@#######oo",
"###@@###@##oo####@@#oo.oo##@###@@###oo#@@#######oo",
"###@@###@##oo####@@#oo.oo##@###@@###oo#@@#######oo",
"###@@###@##oo#@@#@@####oo###@@#OO###oo#@@#######oo",
"###@@###@##oo#@@#@@####oo###@@#OO###oo#@@#######oo",
"...ooo##@##oo#@@#@@####oo###@@#oo###oo#@@#######oo",
"...oo###@##oo#@@#@@####oo###@@#XX+##oo#@@ooo+###oo",
"...oo###@##oo#@@#@@####oo###@@#XX+##oo#@@ooo+###oo",
"###@@###@##oo#@@#@@####oo###@@#XX+##oo.XXo++####oo",
"###@@###@##oo#@@#@@####oo###@@#XX+##oo.OO#######oo",
"###@@###@##oo#@@#@@####oo###@@#XX+##oo.OO#######oo",
"###@@###@##oo#@@#@@#@@#oo###@@#XX+##oo#@@###@###oo",
"###@@###o##oo.oo+@@#@@#oo###@@oXX+##oo#@@@##@###oo",
"###@@###o##oo.oo+@@#@@#oo###@@oXX+##oo#@@@##@###oo",
"###@@#..o##oo.OO#@@#@@#oo###@@oXX+##oo###@##@###oo",
"  ####...  oo#@@#@@#@@#oo  ###...+  oo###@##@###oo",
"  ####...  oo#@@#@@#@@#oo  ###...+  oo###@##@###oo",
"ooooooooooooo#@@#@@#@@#ooooooooooooooo###@##@###oo",
"ooooooooooooo#@@#@@#@@#ooooooooooooooo###@##@###oo",
"  #...#####oo#@@#@@#@@.oo  ...#...  oo###@##@###oo",
"###...@@###oo#@@#@@#@@#oo##...###.##oo###@##@###oo",
"###...@@###oo#@@#@@#@@#oo##...###.##oo###@##@###oo",
"###..o@@###oo#@@#@@#@@#oo##.oo###o##oo###@##@###oo",
"###oo#@@###oo.OO#@@#@@#oo##.########oo###@##@###oo",
"###oo#@@###oo.OO#@@#@@#oo##.########oo###@##@###oo",
"##@###@@###oo#@@#@@#@@#oo##.#####@##oo...ooo####oo",
"##@###@@###oo#@@#@@#@@#oo@@o#####@##oo...####@@#oo",
"##@###@@###oo#@@#@@#@@#oo@@o#####@##oo...####@@#oo",
"..X###@@###oo#@@#@@#@@#oo@@######@##oo#######@@ooo",
"..X###@@###oo#@@#@@#@@#oo@@######@##oo#######@@ooo",
"..ooo#@@###oo#@@#@@#@@#oo@@######@##oo#######ooooo",
"..@###@@###oo#@@####@@#oo@@######@##oo######oooooo",
"..@###@@###oo#@@####@@#oo@@######@##oo######oooooo",
"##@###@@###oo#@@###o+++ooXXo#####@##oo#######@@ooo",
"##@###@@###oo#@@###ooo+ooXX######@##oo#######@@#oo",
"##@###@@###oo#@@###ooo+ooXX######@##oo#######@@#oo",
"##@###@@###oo#@@###...+oo@@######@##oo#######@@#oo",
"##@###@@###oo######...+oo@@######@##oo#######@@#oo",
"##@###@@###oo######...+oo@@######@##oo#######@@#oo",
"##@oo#@@###oo######...+oo##@#####@##oo##########oo",
"..ooo#@@###oo #####... oo##@#####@##oo ######## oo",
"..ooo#@@###oo #####... oo##@#####@##oo ######## oo"
};
