/* XPM */
static char *way_ezgif_com_overlay1723098847[] = {
/* columns rows colors chars-per-pixel */
"50 50 232 2 ",
"   c #0D1C0C",
".  c #151A0C",
"X  c #1C1915",
"o  c #281704",
"O  c #381802",
"+  c #281A14",
"@  c #0B2316",
"#  c #162517",
"$  c #1E341F",
"%  c #28220B",
"&  c #37260A",
"*  c #292716",
"=  c #372815",
"-  c #23361B",
";  c #3A3818",
":  c #16302B",
">  c #222F23",
",  c #2A3B27",
"<  c #393826",
"1  c #253C33",
"2  c #441C02",
"3  c #4B1C09",
"4  c #561804",
"5  c #5D1D01",
"6  c #641D09",
"7  c #4B2301",
"8  c #472909",
"9  c #522403",
"0  c #5B2401",
"q  c #542A02",
"w  c #5C2C02",
"e  c #5C2B0B",
"r  c #563006",
"t  c #5D320D",
"y  c #462C17",
"u  c #572815",
"i  c #4A3718",
"p  c #563819",
"a  c #682806",
"s  c #632A0D",
"d  c #772B05",
"f  c #643203",
"g  c #64350D",
"h  c #6A3608",
"j  c #793706",
"k  c #73340D",
"l  c #733B0D",
"z  c #7A2D12",
"x  c #653A19",
"c  c #773A14",
"v  c #4A2C21",
"b  c #463B24",
"n  c #593924",
"m  c #673D28",
"M  c #094438",
"N  c #144E3D",
"B  c #38472A",
"V  c #25493A",
"C  c #325134",
"Z  c #376739",
"A  c #3B793E",
"S  c #45491A",
"D  c #5D511D",
"F  c #79420B",
"G  c #69481B",
"H  c #764A14",
"J  c #794718",
"K  c #464426",
"L  c #5A4929",
"P  c #4C5A29",
"I  c #464935",
"U  c #574B38",
"Y  c #495732",
"T  c #5C5838",
"R  c #664928",
"E  c #774A28",
"W  c #6C572A",
"Q  c #795428",
"!  c #624A30",
"~  c #625235",
"^  c #6A5635",
"/  c #785A37",
"(  c #476C35",
")  c #567832",
"_  c #746C2F",
"`  c #786537",
"'  c #1F5644",
"]  c #265748",
"[  c #3A5B48",
"{  c #316B4B",
"}  c #35755B",
"|  c #2E7564",
" . c #555C40",
".. c #6B5C47",
"X. c #4A7B45",
"o. c #4F754E",
"O. c #776744",
"+. c #757754",
"@. c #477A60",
"#. c #812E00",
"$. c #853A07",
"%. c #8A3A00",
"&. c #963A02",
"*. c #883A18",
"=. c #A23E01",
"-. c #86450B",
";. c #8C440C",
":. c #97460A",
">. c #874A18",
",. c #964E15",
"<. c #965412",
"1. c #9A5519",
"2. c #AA4604",
"3. c #B94B03",
"4. c #A5510E",
"5. c #B5550B",
"6. c #A75C18",
"7. c #B55F15",
"8. c #B96A1C",
"9. c #834E22",
"0. c #875B28",
"q. c #90572E",
"w. c #A35E22",
"e. c #8E6A38",
"r. c #906834",
"t. c #AF6B27",
"y. c #B97A2B",
"u. c #C95806",
"i. c #D15D0C",
"p. c #D96808",
"a. c #C26613",
"s. c #D36F13",
"d. c #D56C12",
"f. c #E16C0A",
"g. c #E6780C",
"h. c #E57B15",
"j. c #E57A17",
"k. c #C77523",
"l. c #D97C21",
"z. c #846E4B",
"x. c #986B45",
"c. c #95734B",
"v. c #917B53",
"b. c #A67C44",
"n. c #4E8C3B",
"m. c #538B3A",
"M. c #6B8C3A",
"N. c #70A93E",
"B. c #3C8667",
"V. c #3B8C6D",
"C. c #3C916F",
"Z. c #3D8F70",
"A. c #488748",
"S. c #578947",
"D. c #549745",
"F. c #499550",
"G. c #708D4C",
"H. c #6B9D4A",
"J. c #659655",
"K. c #5DAC47",
"L. c #5AAD58",
"P. c #6AAA46",
"I. c #72A946",
"U. c #65B343",
"Y. c #6ABA41",
"T. c #4A926C",
"R. c #4AA067",
"E. c #898E3B",
"W. c #B88131",
"Q. c #EA8519",
"!. c #EA841B",
"~. c #F2851A",
"^. c #DB8429",
"/. c #ED8C22",
"(. c #E78A28",
"). c #EC9128",
"_. c #F39425",
"`. c #F69625",
"'. c #FB9D26",
"]. c #F3942A",
"[. c #F49C2C",
"{. c #F99C2D",
"}. c #EA9A36",
"|. c #F79B32",
" X c #F6A22C",
".X c #FBA12D",
"XX c #F5A232",
"oX c #FAA234",
"OX c #F9A639",
"+X c #9E8243",
"@X c #998557",
"#X c #8D9551",
"$X c #A58448",
"%X c #A48859",
"&X c #B58A56",
"*X c #AD9556",
"=X c #B69958",
"-X c #948A6F",
";X c #B69768",
":X c #A79A7E",
">X c #BA9A70",
",X c #B7A56B",
"<X c #ABA175",
"1X c #D89948",
"2X c #ECAB52",
"3X c #F3B153",
"4X c #C4996C",
"5X c #C7A66D",
"6X c #D1AD72",
"7X c #E2BB76",
"8X c #92DC5E",
"9X c #98E25D",
"0X c #F2C274",
"qX c #9B9A8E",
"wX c #AEA48C",
"eX c #B5B3A5",
"rX c #C9AE80",
"tX c #D6B889",
"yX c #D1BA8F",
"uX c #C3BBA8",
"iX c #DEC692",
"pX c #E6CB93",
"aX c #E5CC9A",
"sX c #F9DA99",
"dX c #D5C4AF",
"fX c #CCC8BC",
"gX c #E9DAB5",
"hX c #FBE9B6",
"jX c #D9D4C8",
"kX c #E7DACB",
"lX c #E9E5C6",
"zX c #F3E7CC",
/* pixels */
"Y.Y.Y.Y.Y.Y.Y.Y.Y.Y.Y.Y.Y.Y.Y.Y.Y.Y.Y.Y.Y.Y.Y.Y.Y.Y.[ < + O & % @ M R.Y.Y.Y.C.Y.Y.Y.Y.Y.Y.Y.Y.Y.Y.Y.",
"Y.Y.Y.Y.Y.Y.Y.Y.Y.Y.Y.Y.Y.Y.Y.Y.Y.Y.Y.Y.Y.Y.Y.Y.U.D.< y y u 8 % @ ' C.Y.Y.Y.C.Y.Y.Y.Y.Y.Y.Y.Y.Y.Y.Y.",
"Y.Y.C.Y.Y.Y.Y.Y.Y.C.C.Y.Y.Y.Y.Y.Y.C.C.Y.Y.Y.Y.Y.D.C G J J J E i $ M L.Y.Y.Y.Y.C.C.Y.Y.Y.Y.Y.Y.Y.Y.Y.",
"Y.Y.Y.C.C.Y.Y.Y.Y.Y.Y.C.C.Y.Y.Y.Y.Y.Y.C.Y.Y.Y.K.Y p h ;.1.9.Q L C { L.Y.Y.Y.9XC.C.Y.Y.Y.Y.Y.Y.Y.Y.Y.",
"Y.Y.Y.C.C.Y.Y.Y.Y.Y.Y.C.C.Y.Y.Y.Y.Y.Y.C.Y.Y.Y.( p c :.6.w.,.E P F.K.Y.Y.Y.Y.9XC.C.Y.Y.Y.Y.Y.Y.Y.Y.Y.",
"Y.Y.9XC.C.Y.Y.Y.Y.9X9XC.C.Y.Y.Y.Y.9X9XC.Y.Y.{ U t ;.:.4.:.h D @.C.Y.Y.Y.Y.Y.Y.9X9XY.Y.Y.Y.Y.Y.Y.Y.Y.",
"Y.Y.Y.9X9XY.Y.Y.Y.Y.Y.9X9XY.Y.Y.Y.Y.Y.9XY.D.< y g c -.$.h 8 S B.C.Y.Y.Y.Y.Y.Y.Y.Y.Y.C.C.Y.Y.Y.Y.Y.Y.",
"Y.Y.Y.9X9XY.Y.Y.Y.Y.Y.9X9XY.Y.Y.Y.Y.Y.9XY.o.o O 7 w h f q O P C.C.Y.Y.Y.Y.Y.Y.Y.Y.Y.C.C.Y.Y.Y.Y.Y.Y.",
"Y.Y.Y.Y.Y.Y.Y.Y.Y.Y.Y.Y.Y.C.Y.Y.Y.Y.Y.A.Y & o O O 2 2 2 O o B 9X9XY.Y.Y.Y.Y.Y.Y.Y.Y.Y.Y.C.Y.Y.Y.Y.Y.",
"Y.Y.Y.Y.Y.Y.Y.Y.Y.Y.Y.Y.Y.Y.C.C.Y.Y.J. .8 e w t h g g t p y P D.Y.Y.Y.Y.Y.Y.Y.Y.Y.Y.9X9XC.Y.Y.Y.Y.Y.",
"Y.Y.Y.Y.Y.Y.Y.Y.Y.Y.Y.Y.Y.Y.C.Z.Y.J.! x *.$.-.-.F -.-.F l c J ^ S.Y.Y.Y.Y.Y.Y.Y.Y.Y.9X9XC.Y.Y.Y.Y.Y.",
"Y.Y.Y.C.C.Y.Y.Y.Y.Y.Y.Y.Y.9XC.Z.J.n s k *.1.w.w.w.w.6.1.>.J k e v X.Y.Y.Y.Y.Y.Y.Y.Y.Y.Y.9XY.Y.Y.Y.Y.",
"Y.Y.Y.C.C.Y.Y.Y.Y.Y.Y.Y.Y.9XC.Z.n u s a h F l 9.>.>.J F l h s s 8 K A.Y.Y.Y.Y.Y.Y.Y.Y.Y.9XY.Y.Y.Y.Y.",
"Y.Y.Y.Y.Y.C.Y.Y.Y.Y.Y.Y.Y.Y.#X .n s 4 s q r t r r w r r w q 5 e e p K } Y.Y.Y.Y.Y.Y.Y.Y.Y.Y.Y.Y.Y.Y.",
"Y.Y.Y.9X9XC.Y.Y.Y.Y.Y.Y.Y.K.+.3 z a f 2 q r 7 t i r 8 r r q 9 e h t = 1 C.C.Y.Y.Y.Y.C.C.Y.Y.Y.Y.Y.Y.",
"Y.Y.Y.9X9XC.Y.Y.Y.Y.Y.Y.Y.D.= 3 s k f f f H H G G E H H F h w f h 4 = $ | C.Y.Y.Y.Y.C.C.Y.Y.Y.Y.Y.Y.",
"C.C.Y.Y.Y.9XY.Y.Y.Y.Y.Y.Y.} + O 3 l -.1.t.t.k.W.W.W.y.k.8.t.<.j h 2 o   | V.Y.Y.Y.Y.Y.Y.C.Y.Y.Y.Y.Y.",
"Y.Y.C.Y.Y.Y.Y.Y.Y.Y.Y.Y.Y.X.X O q -.6.k.^.(.}.}.1X}.|.}.(.^.8.4.j 7 o   } 9XY.Y.Y.Y.9X9XC.Y.Y.Y.Y.Y.",
"Y.Y.C.Y.Y.Y.Y.Y.Y.Y.Y.Y.Y.X.% 8 F 6.k.(.|.|.OXOXOXOXOXOX|.].^.8.<.k 7 . ' 9XY.Y.Y.Y.9X9XC.Y.Y.Y.Y.Y.",
"9X9XC.Y.Y.Y.Y.Y.Y.Y.Y.Y.U.G.& H 6.k.(.].'.'..X.X X X X.X|.{._.^.8.,.f & V Y.Y.Y.Y.Y.Y.Y.9XY.Y.Y.Y.Y.",
"Y.Y.9XY.Y.Y.Y.Y.Y.Y.Y.Y.J.! h :.a.Q._.'.'.'.'..X.X X X X XoX{.(.l.6.;.t B Y.Y.Y.Y.Y.Y.Y.Y.Y.Y.C.Y.Y.",
"Y.Y.9XY.Y.Y.Y.Y.Y.Y.Y.Y.G.g ;.5.s.Q._.'..X'..XoX X X X X X{.]./.j.a.4.F n C Y.Y.Y.Y.Y.Y.Y.Y.Y.C.Y.Y.",
"Y.Y.Y.Y.Y.C.Y.Y.Y.Y.Y.G.x $.=.i.p.Q.Q.[.'.'.{.[.XXXXXXXXXX X_.!.j.d.5.:.g i [ Y.Y.Y.Y.Y.Y.Y.Y.Y.C.C.",
"Y.Y.Y.Y.Y.Y.C.V.Y.Y.Y.` a %.u.u.p.Q.Q./.[.[.oXoXoXXXXX X[.].Q.j.g.p.u.4.z 8 * K.Y.C.Y.Y.Y.Y.Y.9XC.C.",
"Y.Y.Y.Y.Y.Y.C.C.Y.Y.H.4 6 &.a.u.f.f.j.j.].). X XoX[.oX'._.~.j.g.f.p.u.3.#.5 o n.Y.C.Y.Y.Y.Y.Y.9XC.C.",
"Y.Y.Y.Y.Y.9XC.C.Y.Y.G.6 d %.3.u.p.p.j.j./.).). X X].'.`.~.Q.g.f.f.i.u.=.#.a 7 ( Y.Y.C.C.Y.Y.Y.Y.9X9X",
"Y.Y.Y.Y.Y.9XC.C.Y.G.n s j %.&.u.u.p.f.j.j.(._._.[.`.`.~.~.g.g.p.i.u.3.&.#.d r S { Y.C.C.Y.Y.Y.Y.9X9X",
"Y.Y.Y.Y.Y.Y.9X9XJ.E c c j %.&.2.3.u.i.d.s.l.(._._.)./.!.j.p.p.u.u.3.=.&.#.$.l p B D.C.C.Y.Y.Y.Y.Y.Y.",
"Y.Y.Y.Y.Y.Y.Y.P.` 0 z *.$.d %.&.2.2.5.7.8.k.^.}.}.}.}.(.k.8.5.5.2.2.&.#.d z *.s i V 9X9XY.Y.Y.Y.Y.Y.",
"Y.Y.Y.Y.Y.Y.Y.P.G d z *.#.a d %.=.&.:.:.t.y.1X2X3X2X2X1Xt.6.:.:.&.&.d a d z *.z u : 9X9XY.Y.Y.Y.Y.Y.",
"Y.Y.Y.Y.Y.Y.Y.I.G 5 *.a 5 5 a d ;.d h f 0.+X6X0X0X0X7X5Xr.Q w j $.;.f q 5 a z a 7 - Y.Y.Y.Y.Y.Y.Y.Y.",
"Y.Y.Y.Y.Y.Y.Y.I.W 4 4 u 3 O s z q.k g 8 ` %XpXsXsXsXaXiXz.^ 7 t F >.g 7 3 6 6 4 3 - Y.Y.Y.Y.Y.Y.Y.Y.",
"Y.Y.Y.Y.Y.Y.Y.N.W f 2 O + o n 9.w.9.p i O.:XgXhXhXhXhXdX-X..y m J r.G 8 o O O 2 i m.Y.Y.Y.Y.Y.Y.Y.Y.",
"Y.Y.Y.Y.Y.Y.C.B.M.D & + X X L q.+Xr.W T -XuXlXkXlXzXzXkXqX+.! e.e.$XW i o % y ; S C Y.Y.Y.Y.Y.Y.Y.Y.",
"Y.Y.Y.Y.Y.Y.Y.Y.B.P.D.] @ > U _ =X*X@X-XwXfXkXjXfXjXjXlXeX:Xv.%X&Xb.^ b * ) Z m.n.U.C.C.Y.Y.Y.Y.Y.Y.",
"Y.Y.Y.Y.Y.Y.Y.Y.C.Y.Y.Y.D.> S e.=X=X<XwXdXkXjXeXqXqXeXlXgXyXrX4X6X&X^ b ; Y.Y.Y.Y.Y.C.C.Y.Y.Y.Y.Y.Y.",
"Y.Y.C.Y.Y.Y.9X9XC.Y.Y.Y.U.: ; W %X,XyXyXgXkXdX:X+.+.:XgXgXpXiX5X4Xc.L , V Y.Y.Y.Y.9XC.C.Y.Y.Y.Y.Y.Y.",
"Y.Y.C.Y.Y.Y.9X9XC.Y.Y.Y.Y.M * L / v.>XtXyXiXyX;Xv.@X,XpXpXiXrX>Xc.^ ; > Z Y.Y.Y.Y.9XC.C.Y.Y.Y.Y.Y.Y.",
"Y.Y.Y.C.C.Y.Y.Y.9XY.Y.Y.Y.M   & n q.x.&X5X7X6X4X*X*X4X6X5X4X%Xz./ b % . Z Y.Y.Y.Y.Y.9X9XY.Y.Y.C.Y.Y.",
"Y.Y.9XC.C.Y.Y.Y.Y.Y.Y.Y.Y.N   o v m E e.e.+XE.$X$X+X+X$Xb.x./ ! v & o # { Y.Y.Y.Y.Y.Y.Y.Y.Y.Y.Y.C.C.",
"Y.Y.9XC.C.Y.Y.Y.Y.Y.Y.Y.Y.' @ = v m x x D W _ ` O.` ` ` R R p p n v = X A Y.Y.Y.Y.Y.Y.Y.Y.Y.Y.Y.C.C.",
"Y.Y.Y.9X9XY.Y.Y.Y.Y.Y.Y.Y.{ 1 I U R p u & & * < B < < = y 8 i S R n v B n.Y.Y.Y.Y.Y.Y.Y.Y.Y.Y.9XC.C.",
"Y.Y.Y.Y.Y.Y.C.C.Y.Y.Y.Y.Y.F.] [ T U n p & % @ : 1 V : % % 8 i R R R Y X.U.Y.Y.Y.Y.C.Y.Y.Y.Y.Y.Y.9X9X",
"Y.Y.Y.Y.Y.Y.C.C.Y.Y.Y.Y.Y.N.8X[ I L W ^ K $ : U.U.U.Y.# * L R R R U ) Y.Y.Y.Y.Y.Y.C.Y.Y.Y.Y.Y.Y.9X9X",
"Y.Y.Y.Y.Y.Y.Y.Y.C.Y.Y.Y.Y.Y.Y.@.B I / +. .C V.Y.Y.Y.Y.1 b O.c./ G D V.V.Y.Y.Y.Y.Y.Y.C.C.Y.Y.Y.Y.Y.Y.",
"Y.Y.Y.Y.Y.Y.9X9XC.Y.Y.Y.Y.Y.Z.V.$ ; L O. .@.C.Y.Y.Y.Y.Z ~ z.;X/ Q ) C.C.Y.Y.Y.Y.Y.9XC.C.Y.Y.Y.C.Y.Y.",
"Y.Y.Y.Y.Y.Y.9X9XC.Y.Y.Y.Y.Y.V.C.V * i ~ S.9XT.U.Y.Y.Y.m.+.c.>Xe.E M.C.C.Y.Y.Y.Y.Y.9XC.C.Y.Y.Y.C.Y.Y.",
"Y.Y.Y.Y.Y.Y.Y.Y.9XY.Y.Y.Y.Y.Y.Y.] - ; S.U.Y.9XY.Y.Y.Y.m.@Xx.v./ E ) 9X9XY.Y.Y.Y.Y.Y.9X9XY.Y.Y.Y.C.C.",
"Y.Y.Y.Y.Y.Y.Y.Y.Y.Y.Y.Y.Y.Y.9X9XC.m.K.U.Y.Y.Y.Y.Y.Y.Y.U.H.E.q.R u ) Y.Y.Y.Y.Y.Y.Y.Y.Y.Y.Y.Y.Y.9XC.C.",
"Y.Y.Y.Y.Y.Y.Y.Y.Y.Y.Y.Y.Y.Y.9X9XT.Y.Y.Y.Y.Y.Y.Y.Y.Y.Y.Y.N.E./ p 4 ) Y.U.Y.Y.Y.Y.Y.Y.Y.Y.Y.Y.Y.9XC.C."
};
