/* XPM */
static char *aa23fda65f464259ced199286b815ecaVAIB9fyhQcNOJw5H[] = {
/* columns rows colors chars-per-pixel */
"50 50 3 1 ",
"  c black",
". c #A64D4E",
"X c #F097A0",
/* pixels */
"XXXXXXXXXXXXXXXXXXXXXXXXXXXXXXX  XXXXXXXXXXXXXXXXX",
"XXXXXXXXXXXXXXXXXXXXXXXXXXXXXXX  XXXXXXXXXXXXXXXXX",
"...............................  .................",
"...............................  .................",
"...............................  .................",
"...............................  .................",
"...............................  .................",
"...............................  .................",
"...............................  .................",
"...............................  .................",
"...............................  .................",
"                                                  ",
"                                                  ",
"XXXXXXXXXXXXXXXXXXXXXXX  XXXXXXXXXXXXXXXXXXXXXXXXX",
".......................  .........................",
".......................  .........................",
".......................  .........................",
".......................  .........................",
".......................  .........................",
".......................  .........................",
".......................  .........................",
".......................  .........................",
".......................  .........................",
".......................  .........................",
".......................  .........................",
".......................  .........................",
".......................  .........................",
".......................  .........................",
".......................  .........................",
".......................  .........................",
"                                                  ",
"XXXXXXXXXXXXXXXXXXXXXXXXXXXXXXXXXXXX  XXXXXXXXXXXX",
"XXXXXXXXXXXXXXXXXXXXXXXXXXXXXXXXXXXX  XXXXXXXXXXXX",
"....................................  ............",
"....................................  ............",
"....................................  ............",
"....................................  ............",
"....................................  ............",
"....................................  ............",
"....................................  ............",
"....................................  ............",
"....................................  ............",
"....................................  ............",
"....................................  ............",
"....................................  ............",
"....................................  ............",
"....................................  ............",
"....................................  ............",
"                                                  ",
"                                                  "
};
