/* XPM */
static char *_9b41a0a79104054857c27f784bd6dcc9liIQ9b5Kv1aZxp6[] = {
/* columns rows colors chars-per-pixel */
"50 50 3 1 ",
"  c #3C916F",
". c #6ABA41",
"X c #98E25D",
/* pixels */
"...................................... ...........",
"...................................... ...........",
".. ......  ......  ....................  .........",
"...  ......  ...... .......... .......X  .........",
"...  ......  ...... .......... .......X  .........",
"..X  ....XX  ....XX ...........  ......XX.........",
"...XX......XX......X..........X  .........  ......",
"...XX......XX......X..........X  .........  ......",
"............. ...........  ....XX........... .....",
"..............  ........... ..............XX .....",
"..............  ........... ..............XX .....",
"...  ........X  .........XX ................X.....",
"...  ........X  .........XX ................X.....",
"..... ........XX... .......X......  ..............",
"...XX ..............  ..............  ....  ......",
"...XX ..............  ..............  ....  ......",
"  ...X....... .....X  ............XX  ...... .....",
".. ...........  ....XX......  ......XX....XX .....",
".. ...........  ....XX......  ......XX....XX .....",
"XX ..........X  .............. .............X.....",
"..X...........XX... ........XX ................ ..",
"..X...........XX... ........XX ................ ..",
"..... ..............  ........X.................  ",
"......  ...........X  ................... .....X  ",
"......  ...........X  ................... .....X  ",
".....X  ............XX....................  ....XX",
".....X  ............XX....................  ....XX",
"......XX..... ..............  ...........X  ......",
"..............  ...... ....... .....  ....XX......",
"..............  ...... ....... .....  ....XX......",
".............X  .......  ...XX ....... ...........",
"..............XX......X  .....X.....XX ...........",
"..............XX......X  .....X.....XX ...........",
"......  .........  ....XX.............X.. ........",
"........ .......... ........  ............  ......",
"........ .......... ........  ............  ......",
".. ...XX ........XX .......... ..........X  ......",
".. ...XX ........XX .......... ..........X  ......",
"...  ...X.... .....X........XX ...........XX... ..",
"..X  .........  ..............X.................  ",
"..X  .........  ..............X.................  ",
"...XX........X  ...............................X  ",
"......  ......XX....  ..... ..... ....... ......XX",
"......  ......XX....  ..... ..... ....... ......XX",
"........ ............. .....  ....  ......  ......",
"......XX .....  ....XX ....X  ...X  .....X  ... ..",
"......XX .....  ....XX ....X  ...X  .....X  ... ..",
"........X....... .....X.....XX....XX......XX....  ",
"..............XX ..............................X  ",
"..............XX ..............................X  "
};
